<?xml version="1.0" standalone="no"?>
<svg xmlns="http://www.w3.org/2000/svg" xmlns:xlink="http://www.w3.org/1999/xlink" id="body_1" width="667" height="667">

<defs>
    <clipPath  id="1">

    <path id=""  clip-rule="evenodd" transform="matrix(1 0 0 1 0 0)"  d="M500 0L500 500L500 500L0 500L0 500L0 0L0 0L500 0z" />    </clipPath>
</defs>

<g transform="matrix(1.3333 0 0 1.3333 0 0)">
	<g clip-path="url(#1)" >
    <path id=""  transform="matrix(1 0 0 -1 0 500)"  d="M29.53122 498.46683C 12.929657 498.46683 0 485.0098 0 467.84183L0 467.84183L0 467.84183L0 467.84183L0 32.158203L0 32.158203L0 32.158203C 0 14.990236 12.9687195 1.5332029 29.541016 1.5332029L29.541016 1.5332029L29.541016 1.5332029C 35.139435 1.5754775 40.62857 3.0875182 45.458984 5.9179683L45.458984 5.9179683L374.4043 223.75C 384.23828 229.42383 390.10742 239.25781 390.10742 250L390.10742 250L390.10742 250C 390.10742 260.7422 384.24805 270.5762 374.4043 276.24023L374.4043 276.24023L45.458954 494.08206C 40.628723 496.91296 35.139496 498.42502 29.540955 498.46683" stroke="#FFFFFF" stroke-width="1.3020834" fill="#434040" fill-rule="nonzero" />
    <path id=""  transform="matrix(1 0 0 -1 0 500)"  d="M439.51172 487.80276C 406.10876 487.80276 379.02884 460.7272 379.02344 427.32422L379.02344 427.32422L379.02344 427.32422L379.02344 427.32422L379.02344 72.67578L379.02344 72.67578L379.02344 72.67578C 379.02344 39.269028 406.10498 12.187501 439.51172 12.187501L439.51172 12.187501L439.51172 12.187501C 472.9185 12.187501 500 39.269028 500 72.67578L500 72.67578L500 72.67578L500 72.67578L500 427.32422L500 427.32422L500 427.32422C 499.99463 460.7272 472.91467 487.80276 439.51172 487.80276" stroke="#FFFFFF" stroke-width="1.3020834" fill="#434040" fill-rule="nonzero" />
	</g>
</g>
</svg>
